<?xml version="1.0" encoding="UTF-8"?>
<svg id="Layer_1" xmlns="http://www.w3.org/2000/svg" version="1.1" viewBox="0 0 867.22 200">
  <!-- Generator: Adobe Illustrator 29.8.2, SVG Export Plug-In . SVG Version: 2.1.1 Build 3)  -->
  <defs>
    <style>
      .st0 {
        fill: #fff;
      }
    </style>
  </defs>
  <path class="st0" d="M410.18,0l7.35,26.12c.87,3.35,1.75,6.69,2.33,9.46.36,1.6.66,3.13.95,4.58h.15c.29-1.46.58-2.98.95-4.58.58-2.76,1.31-6.11,2.26-9.46l7.35-26.12h15.06v52.02h-9.82v-29.83c0-2.11,0-4.73.22-6.98.07-1.24.15-2.55.22-3.78h-.15c-.22,1.24-.51,2.4-.73,3.57-.51,2.04-1.02,4.37-1.53,6.33l-8.95,30.7h-10.11l-8.73-30.7c-.58-1.96-1.02-4.29-1.53-6.33-.22-1.16-.51-2.33-.73-3.57h-.15c.07,1.24.15,2.55.22,3.78.07,2.26.22,4.87.22,6.98v29.83h-9.68V0h14.84ZM475.66,47.87h-.15c-.92,1.5-2.23,2.73-3.78,3.57-2.25,1.05-4.72,1.55-7.2,1.46-7.71,0-13.02-3.93-13.02-11.42,0-4.07,1.6-6.84,4.36-8.66s6.4-2.76,10.62-3.35c6.26-.87,9.02-1.38,9.02-4.22s-2.04-4.44-6.26-4.44c-4.66,0-6.91,1.6-7.2,5.24h-8.8c.04-3.32,1.53-6.45,4.07-8.59,2.62-2.26,6.55-3.71,12-3.71,11.2,0,15.72,4.95,15.72,13.75v18.99c0,2.84.44,4.51,1.31,5.17v.36h-9.53c-.67-1.29-1.07-2.7-1.17-4.15h0ZM473.48,43.73c1.41-1.23,2.23-3,2.26-4.87v-5.6c-1.75,1.09-4.36,1.6-6.91,2.18-5.24,1.16-7.71,2.33-7.71,5.82s2.33,4.73,5.82,4.73c2.39.1,4.73-.71,6.55-2.26h0ZM488.54,39.94h9.17c.66,4.37,3.64,6.18,8.15,6.18s6.84-1.67,6.84-4.29c0-1.75-1.24-2.76-2.98-3.42-2.24-.66-4.53-1.17-6.84-1.53-3.42-.65-6.62-1.38-9.09-3.06-2.55-1.67-4.15-4.15-4.15-8.22-.17-3.57,1.51-6.97,4.44-9.02,2.77-1.96,6.47-2.91,10.77-2.91,9.97,0,15.21,4.73,16.01,12.37h-8.95c-.51-4.07-2.91-5.46-7.2-5.46-3.93,0-6.4,1.38-6.4,4.15,0,1.67,1.24,2.47,3.2,3.06,1.89.65,4.44.95,7.06,1.53,3.13.65,6.4,1.38,8.95,3.06,2.55,1.75,4.22,4.37,4.22,8.73.09,3.48-1.54,6.77-4.36,8.8-3.36,2.23-7.33,3.35-11.35,3.2-10.92,0-16.88-5.16-17.46-13.17h0ZM523.9,39.94h9.17c.66,4.37,3.64,6.18,8.15,6.18s6.84-1.67,6.84-4.29c0-1.75-1.24-2.76-2.98-3.42-2.24-.66-4.53-1.17-6.84-1.53-3.42-.65-6.62-1.38-9.09-3.06-2.55-1.67-4.15-4.15-4.15-8.22-.17-3.57,1.51-6.97,4.44-9.02,2.77-1.96,6.47-2.91,10.77-2.91,9.97,0,15.21,4.73,16.01,12.37h-8.95c-.51-4.07-2.91-5.46-7.2-5.46-3.93,0-6.4,1.38-6.4,4.15,0,1.67,1.24,2.47,3.2,3.06,1.89.65,4.44.95,7.06,1.53,3.13.65,6.4,1.38,8.95,3.06,2.55,1.75,4.22,4.37,4.22,8.73.09,3.48-1.54,6.77-4.36,8.8-3.36,2.23-7.33,3.35-11.35,3.2-10.92,0-16.88-5.16-17.46-13.17h0ZM583.92,47.87h-.15c-.92,1.5-2.23,2.73-3.78,3.57-2.25,1.05-4.72,1.55-7.2,1.46-7.71,0-13.02-3.93-13.02-11.42,0-4.07,1.6-6.84,4.36-8.66s6.4-2.76,10.62-3.35c6.26-.87,9.02-1.38,9.02-4.22s-2.04-4.44-6.26-4.44c-4.66,0-6.91,1.6-7.2,5.24h-8.8c.04-3.32,1.53-6.45,4.07-8.59,2.62-2.26,6.55-3.71,12-3.71,11.2,0,15.72,4.95,15.72,13.75v18.99c0,2.84.44,4.51,1.31,5.17v.36h-9.53c-.67-1.29-1.07-2.7-1.17-4.15h0ZM581.73,43.72c1.41-1.23,2.23-3,2.26-4.87v-5.6c-1.75,1.09-4.36,1.6-6.91,2.18-5.24,1.16-7.71,2.33-7.71,5.82s2.33,4.73,5.82,4.73c2.39.1,4.73-.71,6.55-2.26h0ZM602.47,47.36c-3.46-3.81-5.31-8.82-5.17-13.97-.13-5.15,1.69-10.17,5.09-14.04,3.49-3.75,8.42-5.81,13.53-5.68,4.2-.13,8.32,1.21,11.64,3.78,2.91,2.55,4.8,6.06,5.31,9.9h-9.68c-.49-3.37-3.43-5.84-6.84-5.75-6.04,0-9.02,4.44-9.02,11.79s2.77,11.79,8.88,11.79c4.07,0,6.84-2.04,7.49-6.33h9.53c-.25,3.86-2,7.46-4.87,10.04-3.31,2.85-7.57,4.35-11.93,4.22-5.26.16-10.34-1.93-13.96-5.75h0ZM647.21,19.57c2.77-4,5.67-5.89,10.84-5.89,3.53-.1,6.93,1.33,9.31,3.93,2.39,2.79,3.66,6.37,3.57,10.04v24.37h-9.9v-22.92c0-4.07-2.26-6.84-6.47-6.84s-7.57,3.42-7.57,8.59v21.17h-9.89V0h9.9v19.57h.21ZM700.18,47.65h-.22c-2.35,3.58-6.42,5.63-10.7,5.38-8.37,0-12.95-5.16-12.95-13.46V14.7h9.82v23.2c0,4.37,1.89,6.77,6.18,6.77,4.66,0,7.49-3.49,7.49-8.44V14.7h9.9v37.32h-9.53v-4.37ZM713.35,39.94h9.17c.66,4.37,3.64,6.18,8.15,6.18s6.84-1.67,6.84-4.29c0-1.75-1.24-2.76-2.98-3.42-2.24-.66-4.53-1.17-6.84-1.53-3.42-.65-6.62-1.38-9.09-3.06-2.55-1.67-4.15-4.15-4.15-8.22-.17-3.57,1.51-6.97,4.44-9.02,2.77-1.96,6.47-2.91,10.77-2.91,9.97,0,15.21,4.73,16.01,12.37h-8.95c-.51-4.07-2.91-5.46-7.2-5.46-3.93,0-6.4,1.38-6.4,4.15,0,1.67,1.24,2.47,3.2,3.06,1.89.65,4.44.95,7.06,1.53,3.13.65,6.4,1.38,8.95,3.06,2.55,1.75,4.22,4.37,4.22,8.73.09,3.48-1.54,6.77-4.36,8.8-3.36,2.23-7.33,3.35-11.35,3.2-10.92,0-16.88-5.16-17.46-13.16h0ZM754.09,47.36c-3.35-3.49-5.02-8.51-5.02-14.04-.11-5.14,1.73-10.14,5.17-13.97,3.4-3.69,8.22-5.76,13.24-5.68,6.04,0,10.55,2.26,13.68,6.26s4.73,9.53,4.73,16.22h-27.06c.8,5.82,3.86,9.31,9.53,9.31,3.93,0,6.11-1.75,7.2-4.58h9.75c-.68,3.41-2.56,6.46-5.31,8.59-3.34,2.48-7.41,3.76-11.57,3.64-6.26,0-10.99-2.18-14.33-5.75h0ZM758.96,29.32h16.59c-.29-4.8-3.35-8-7.93-8-5.24,0-7.78,3.05-8.66,8h0ZM792.28,14.7V3.06h9.68v11.64h6.4v6.91h-6.4v19.43c0,2.84,1.46,3.71,3.71,3.71h1.89c.34.01.68-.01,1.02-.07v7.27c-.53.06-1.07.09-1.6.07-1.09.07-2.62.07-4.58.07-2.41.11-4.8-.53-6.84-1.82-1.96-1.38-3.27-3.64-3.27-7.13v-21.54h-5.16v-6.91h5.16ZM815.27,14.7V3.06h9.68v11.64h6.4v6.91h-6.4v19.43c0,2.84,1.46,3.71,3.71,3.71h1.89c.34.01.68-.01,1.02-.07v7.27c-.53.06-1.07.09-1.6.07-1.09.07-2.62.07-4.58.07-2.41.11-4.8-.53-6.84-1.82-1.96-1.38-3.27-3.64-3.27-7.13v-21.54h-5.16v-6.91h5.16ZM834.04,39.94h9.17c.66,4.37,3.64,6.18,8.15,6.18s6.84-1.67,6.84-4.29c0-1.75-1.24-2.76-2.98-3.42-2.24-.66-4.53-1.17-6.84-1.53-3.42-.65-6.62-1.38-9.09-3.06-2.55-1.67-4.15-4.15-4.15-8.22-.17-3.57,1.51-6.97,4.44-9.02,2.77-1.96,6.47-2.91,10.77-2.91,9.97,0,15.21,4.73,16.01,12.37h-8.95c-.51-4.07-2.91-5.46-7.2-5.46-3.93,0-6.4,1.38-6.4,4.15,0,1.67,1.24,2.47,3.2,3.06,1.89.65,4.44.95,7.06,1.53,3.13.65,6.4,1.38,8.95,3.06,2.55,1.75,4.22,4.37,4.22,8.73.09,3.48-1.54,6.77-4.36,8.8-3.36,2.23-7.33,3.35-11.35,3.2-10.92,0-16.89-5.16-17.47-13.17h0ZM405.89,67.62v52.02h-10.55v-52.02h10.55ZM422.63,87.41c2.21-3.98,6.51-6.36,11.06-6.11,3.53-.11,6.93,1.33,9.32,3.93,2.39,2.79,3.66,6.37,3.57,10.04v24.37h-9.9v-22.92c0-4.07-2.26-6.84-6.47-6.84s-7.57,3.42-7.57,8.59v21.17h-9.89v-37.32h9.68v5.09h.21ZM449.91,107.57h9.17c.66,4.36,3.64,6.18,8.15,6.18s6.84-1.67,6.84-4.29c0-1.75-1.24-2.77-2.98-3.42-2.24-.66-4.53-1.17-6.84-1.53-3.42-.65-6.62-1.38-9.09-3.06-2.55-1.67-4.15-4.15-4.15-8.22-.17-3.57,1.51-6.97,4.44-9.02,2.77-1.96,6.47-2.91,10.77-2.91,9.97,0,15.21,4.73,16.01,12.37h-8.95c-.51-4.07-2.91-5.46-7.2-5.46-3.93,0-6.4,1.38-6.4,4.15,0,1.67,1.24,2.47,3.2,3.06,1.89.65,4.44.95,7.06,1.53,3.13.65,6.4,1.38,8.95,3.06,2.55,1.75,4.22,4.36,4.22,8.73.09,3.48-1.54,6.77-4.36,8.8-3.36,2.23-7.33,3.35-11.35,3.2-10.92,0-16.88-5.16-17.46-13.17h0ZM489.34,82.32v-11.64h9.68v11.64h6.4v6.91h-6.4v19.42c0,2.84,1.46,3.71,3.71,3.71h1.89c.34.01.68-.01,1.02-.07v7.27c-.53.06-1.07.09-1.6.07-1.09.07-2.62.07-4.58.07-2.41.11-4.8-.53-6.84-1.82-1.96-1.38-3.27-3.64-3.27-7.13v-21.53h-5.16v-6.91h5.16ZM519.97,69.01v8.88h-9.89v-8.88h9.89ZM519.97,82.32v37.32h-9.89v-37.32h9.89ZM528.92,82.32v-11.64h9.68v11.64h6.41v6.91h-6.4v19.42c0,2.84,1.46,3.71,3.71,3.71h1.89c.34.01.68-.01,1.02-.07v7.27c-.53.06-1.07.09-1.6.07-1.09.07-2.62.07-4.58.07-2.41.11-4.8-.53-6.84-1.82-1.96-1.38-3.27-3.64-3.27-7.13v-21.53h-5.17v-6.91h5.16ZM573.22,115.28h-.22c-2.35,3.58-6.43,5.63-10.7,5.38-8.37,0-12.95-5.17-12.95-13.46v-24.88h9.82v23.21c0,4.36,1.89,6.77,6.18,6.77,4.66,0,7.49-3.49,7.49-8.44v-21.53h9.89v37.32h-9.53v-4.36ZM591.7,82.32v-11.64h9.68v11.64h6.4v6.91h-6.4v19.42c0,2.84,1.46,3.71,3.71,3.71h1.89c.34.01.68,0,1.02-.07v7.27c-.53.06-1.07.09-1.6.07-1.09.07-2.62.07-4.58.07-2.41.11-4.8-.53-6.84-1.82-1.96-1.38-3.27-3.64-3.27-7.13v-21.54h-5.17v-6.91h5.17ZM615.27,114.99c-3.35-3.49-5.02-8.51-5.02-14.04-.11-5.14,1.73-10.14,5.17-13.97,3.4-3.69,8.22-5.76,13.24-5.68,6.04,0,10.55,2.26,13.68,6.26s4.73,9.53,4.73,16.22h-27.07c.8,5.82,3.86,9.31,9.53,9.31,3.93,0,6.11-1.75,7.2-4.58h9.75c-.68,3.41-2.56,6.46-5.31,8.58-3.34,2.48-7.41,3.76-11.57,3.64-6.25,0-10.98-2.18-14.33-5.75h0ZM620.15,96.95h16.59c-.29-4.8-3.35-8-7.93-8-5.24,0-7.78,3.05-8.66,8h0ZM666.64,114.99c-3.61-3.74-5.57-8.77-5.46-13.97-.1-5.22,1.86-10.26,5.46-14.04,3.71-3.73,8.78-5.79,14.04-5.68,5.28-.1,10.37,1.95,14.11,5.68,3.55,3.81,5.48,8.84,5.38,14.04.11,5.18-1.83,10.2-5.38,13.97-3.72,3.77-8.82,5.85-14.11,5.75-5.28.12-10.36-1.96-14.04-5.75h0ZM690.14,101.02c0-7.35-3.35-12.22-9.46-12.22s-9.46,4.88-9.46,12.22,3.35,12.15,9.46,12.15,9.46-4.88,9.46-12.15h0ZM706.51,82.32v-3.35c0-4.58,1.75-7.64,4.73-9.46,2.91-1.75,7.06-2.33,11.86-1.82v7.64c-4.66-.22-6.69.29-6.69,4.22v2.76h6.7v7.13h-6.7v30.19h-9.89v-30.19h-5.09v-7.13h5.09ZM421.53,135.25v8.88h-15.64v43.14h-10.55v-43.14h-15.64v-8.88h41.83ZM420.44,182.61c-3.35-3.49-5.02-8.51-5.02-14.04-.11-5.14,1.73-10.14,5.17-13.97,3.4-3.69,8.22-5.76,13.24-5.67,6.04,0,10.55,2.26,13.68,6.26s4.73,9.53,4.73,16.22h-27.07c.8,5.82,3.86,9.31,9.53,9.31,3.93,0,6.11-1.75,7.2-4.58h9.75c-.68,3.41-2.56,6.46-5.31,8.58-3.34,2.48-7.41,3.76-11.57,3.64-6.26,0-10.98-2.18-14.33-5.75ZM425.32,164.57h16.59c-.29-4.8-3.35-8-7.93-8-5.24,0-7.79,3.05-8.66,8ZM459.73,182.61c-3.46-3.81-5.31-8.82-5.17-13.97-.13-5.15,1.69-10.17,5.09-14.04,3.49-3.75,8.42-5.81,13.53-5.67,4.2-.13,8.32,1.21,11.64,3.78,2.91,2.55,4.8,6.06,5.31,9.89h-9.68c-.49-3.37-3.43-5.84-6.84-5.75-6.04,0-9.02,4.44-9.02,11.79s2.77,11.79,8.88,11.79c4.07,0,6.84-2.04,7.49-6.33h9.53c-.25,3.86-2,7.46-4.88,10.04-3.31,2.85-7.57,4.35-11.93,4.22-5.26.16-10.34-1.93-13.97-5.75h0ZM504.47,154.82c2.77-4,5.67-5.89,10.84-5.89,3.53-.1,6.93,1.33,9.31,3.93,2.39,2.79,3.66,6.37,3.57,10.04v24.37h-9.89v-22.92c0-4.07-2.26-6.84-6.47-6.84s-7.57,3.42-7.57,8.58v21.17h-9.89v-52.02h9.89v19.57h.22ZM543.76,155.04c2.21-3.98,6.51-6.36,11.06-6.11,3.53-.1,6.93,1.33,9.31,3.93,2.39,2.79,3.67,6.37,3.57,10.04v24.37h-9.9v-22.92c0-4.07-2.26-6.84-6.47-6.84s-7.57,3.42-7.57,8.58v21.17h-9.9v-37.32h9.68v5.09h.22ZM577.01,182.61c-3.61-3.74-5.57-8.77-5.46-13.97-.1-5.22,1.86-10.26,5.46-14.04,3.71-3.73,8.78-5.78,14.04-5.67,5.28-.1,10.37,1.95,14.11,5.67,3.55,3.81,5.48,8.84,5.38,14.04.11,5.18-1.83,10.2-5.38,13.97-3.72,3.77-8.82,5.85-14.11,5.75-5.28.12-10.36-1.96-14.04-5.75h0ZM600.51,168.64c0-7.35-3.35-12.22-9.46-12.22s-9.46,4.88-9.46,12.22,3.35,12.15,9.46,12.15,9.46-4.87,9.46-12.15h0ZM624.74,135.25v52.02h-9.9v-52.02h9.9ZM634.49,182.61c-3.61-3.74-5.57-8.77-5.46-13.97-.1-5.22,1.86-10.26,5.46-14.04,3.71-3.73,8.78-5.78,14.04-5.67,5.28-.1,10.37,1.95,14.11,5.67,3.55,3.81,5.48,8.84,5.38,14.04.11,5.18-1.83,10.2-5.38,13.97-3.72,3.77-8.82,5.85-14.11,5.75-5.28.12-10.36-1.96-14.04-5.75h0ZM657.99,168.64c0-7.35-3.35-12.22-9.46-12.22s-9.46,4.88-9.46,12.22,3.35,12.15,9.46,12.15,9.46-4.87,9.46-12.15h0ZM671.15,188.36h9.82c.8,2.33,2.84,4.15,7.49,4.15,5.53,0,8.29-2.55,8.29-7.79v-4.07h-.22c-2.37,2.92-5.99,4.54-9.75,4.36-4.25.03-8.32-1.68-11.28-4.73-3.46-3.47-5.33-8.21-5.17-13.1,0-5.53,1.67-10.11,4.58-13.31,2.94-3.28,7.17-5.09,11.57-4.95,4.66,0,8.08,1.82,10.33,4.95h.15v-3.93h9.53v34.48c0,5.24-1.6,8.8-4.44,11.35-3.13,2.91-7.93,4.22-13.46,4.22-10.33,0-16.37-4.36-17.46-11.63h0ZM695.23,174.1c1.44-2.09,2.15-4.59,2.04-7.13.09-2.55-.68-5.07-2.18-7.13-1.63-2-4.12-3.11-6.69-2.98-5.09,0-8.37,3.86-8.37,10.19s3.27,10.04,8.44,10.04c2.6.14,5.11-.97,6.76-2.98h0ZM716.77,191.7c4,0,5.53-1.96,5.53-5.09-.02-1.26-.22-2.51-.58-3.71-.51-1.53-1.16-3.57-2.26-6.4l-10.04-26.55h10.4l5.53,16.81c.58,1.75,1.09,3.71,1.6,5.38.22.95.51,1.82.8,2.77h.15c.22-.95.44-1.82.66-2.77.42-1.82.93-3.62,1.53-5.38l5.24-16.81h9.97l-13.02,38.27c-1.46,4.22-2.84,6.98-4.8,8.73-2.04,1.82-4.58,2.55-8.37,2.55h-5.82v-7.79h3.49ZM187.27,187.27h41.61V62.42h-41.62v124.84ZM249.69,41.61h104.04V0h-104.04v41.61ZM187.27,0h41.61v41.62h-41.61V0ZM124.85,187.27h41.61V0h-41.61v187.27ZM62.42,145.65h41.61V0h-41.61v145.65ZM0,187.27h41.62V0H0v187.27ZM249.69,187.27h41.61V62.42h-41.61v124.85Z"/>
</svg>