<?xml version="1.0" encoding="UTF-8"?>
<svg id="Layer_1" xmlns="http://www.w3.org/2000/svg" version="1.1" viewBox="0 0 2500 2055.4">
  <!-- Generator: Adobe Illustrator 30.0.0, SVG Export Plug-In . SVG Version: 2.1.1 Build 123)  -->
  <defs>
    <style>
      .st0 {
        opacity: .3;
      }

      .st0, .st1, .st2, .st3 {
        fill-rule: evenodd;
      }

      .st1 {
        fill: #fff;
      }

      .st3 {
        fill: #adacac;
      }
    </style>
  </defs>
  <path class="st0" d="M1584.22,968.81c6.91,6.91,14.98,28.8,25.34,41.47-253.43,162.41-809.8,520.68-1120.83,749.92,116.35,115.18,262.64,203.89,429.68,253.43,542.57,158.97,1115.07-154.36,1274.03-696.94,72.59-246.52,47.25-497.62-51.81-714.19-78.33,71.42-168.22,143.99-264.96,216.57-3.47,1.15-5.74,3.46-9.22,5.76-76.03,57.6-155.53,115.19-238.45,171.64-8.06-13.82-17.28-27.65-25.34-41.47,57.6-40.32,114.06-79.48,169.34-118.65l2.32-2.3c63.34-44.93,124.39-88.7,180.84-133.63-115.18,67.96-236.15,122.11-355.95,167.02-1.12-21.89,1.15-43.77,0-64.51-12.66,10.37-27.63,20.73-40.32,31.1-17.28-1.15-27.63-8.06-46.06-12.67-13.84-18.43-27.66-35.71-41.47-52.99,184.31-78.33,376.67-180.86,579.41-326-133.32-193.15-328.91-334.67-554.07-400.89C954.12-117.51,381.61,194.67,221.49,738.4c-47.23,162.42-52.99,325.98-23.04,482.66,61.05-32.29,120.95-61.05,183.16-86.4v20.72l-24.19,33.41c-52.16,15.96-103.66,34.03-154.36,54.16,40.33,187.77,133.64,360.54,266.1,497.64,283.36-230.39,822.47-590.93,1115.07-771.79h0Z"/>
  <path class="st2" d="M648.84,1039.07c-2.3,0-4.61,1.15-8.06,2.32l8.06,12.66v-14.98Z"/>
  <path class="st3" d="M506,1086.29c-22.52,7.77-44.81,16.22-66.81,25.34v52.99c31.1-8.06,64.51-17.28,97.92-25.34l-31.1-52.99ZM381.59,1134.69c-131.32,54.13-258.04,119.8-381.29,209.65,104.83-65.66,225.78-114.06,357.1-155.53l23.04-34.56,1.15-19.57h0ZM1471.35,768.38c13.81,17.28,27.63,35.69,40.32,52.99,19.6,5.76,29.93,11.52,47.21,12.67,12.69-10.37,27.66-20.73,40.32-31.1,1.15,21.89-1.12,43.77,0,64.51,119.8-44.93,240.77-99.05,355.95-165.88-56.43,43.77-117.5,87.55-180.84,132.47l-2.32,2.3c-55.28,39.17-111.74,78.33-169.34,118.65,8.06,13.82,17.28,27.65,25.34,41.47,81.77-56.45,162.42-114.04,238.45-171.64,3.47-2.3,5.74-4.61,9.22-5.76,343.26-260.34,610.53-524.13,624.34-760.3-374.38,369.77-713.05,574.82-1028.65,709.61h0ZM876.93,1063.27l3.46-11.5c-16.13-24.21-31.1-46.09-44.93-67.98-43.77,12.67-86.4,25.34-129.02,38v78.33c55.29-12.67,112.89-24.16,170.49-36.85h0ZM1583.05,968.81c8.06,8.06,16.13,28.8,26.49,41.47-335.2,214.26-1193.4,766.04-1325.89,920.4,23.05-120.95,898.53-713.05,1299.39-961.87ZM864.26,974.57c8.06,14.98,17.28,29.95,25.34,43.77l16.13-55.29c-13.82,3.46-27.65,8.06-41.47,11.52ZM1300.86,964.2c-2.32-5.76-2.32-12.67-2.32-19.58,1.15-59.9,61.05-124.41,139.4-127.87,13.81-1.15,25.34-1.15,35.68-1.15-9.22-12.67-19.57-24.19-29.93-35.71-110.59,46.08-216.57,84.09-321.39,117.5l35.71,103.67c47.23-11.52,94.46-24.19,142.86-36.86h0Z"/>
  <path class="st2" d="M1531.25,892.78c-3.59-5.85-7.85-11.26-12.69-16.13-54.16-12.67-99.05,3.46-99.05,25.34,0,10.37,4.59,17.28,12.66,23.04,33.41-10.37,66.8-20.73,99.08-32.25Z"/>
  <path class="st1" d="M1796.18,819.05l-24.19,17.28c-10.37-10.37-18.43-18.43-18.43-17.28h42.62ZM1337.69,1125.47c-10.34,6.91-19.57,13.81-29.93,20.72-1.15-18.4,1.15-36.85,0-55.28,6.91,13.81,14.98,24.19,29.93,34.56ZM1100.4,1340.87l31.1-20.72c33.41,27.66,64.51,51.84,85.24,64.49,43.76,31.12,24.19,62.22,11.52,69.12-13.82,8.06-50.69,1.15-66.81-29.93-4.61-11.54-32.25-48.4-57.6-78.33-.86-1.74-2.03-3.3-3.46-4.62h0ZM1485.15,1088.61c44.94-28.78,85.24-55.28,120.97-76.01,19.57,20.73,32.25,48.37,32.25,80.65,2.32,65.66-84.09,110.59-155.53,115.18-70.25,4.59-88.68,0-127.87-12.66-13.81,10.34-33.41,20.72-47.21,32.25-1.15-8.06,0-17.28,0-25.34,28.32-18.21,56.73-36.26,85.24-54.16,49.53,13.81,101.37,11.54,110.59-16.13,6.9-21.89-2.32-34.57-18.45-43.79h0Z"/>
  <path class="st1" d="M1609.56,1010.28c35.71,56.45,66.81,112.89,88.72,163.58l-35.71,29.97h49.53c16.13,41.47,26.49,78.32,29.97,107.11,14.98,124.39,33.41,185.46-18.43,252.28-43.77,54.16-116.33,63.37-289.14,2.32,85.24,66.81,320.24,117.5,343.26-80.65,10.37-80.62-8.06-179.67-46.06-281.04h74.88l-38.03-42.62,13.84-50.69h124.39l16.13,49.53-38,43.77h245.36l-56.46-50.69-114.03-334.06h-84.09c-26.18,19.1-52.29,38.3-78.33,57.6l-82.94,283.38c-39.15-92.16-92.16-183.16-152.06-268.4,13.81,6.91,24.19,16.13,36.85,27.65,0-38.01,1.15-78.33,0-116.35-12.66,10.37-27.63,20.73-41.47,31.1-16.13-1.15-27.63-6.91-46.06-12.67-50.69-67.96-105.99-131.32-161.27-183.16-225.81-215.45-445.82-349.07-594.43-262.68-149.75,87.55-21.89,422.76,46.08,549.48,18.43,36.86,47.23,80.64,78.33,126.71l-32.25,107.11-50.69,44.94h143.99l-39.17-44.94,14.98-48.37h1.15c63.36,91,129.02,175.08,149.75,195.8,8.06-5.74,17.28-12.66,25.34-18.4-14.98-12.69-29.95-26.49-42.62-40.33-18.43-17.28-57.6-67.96-103.67-137.05h94.46l16.13,47.21-39.17,46.09h202.74c8.06-5.78,17.28-12.69,25.34-17.28l-38.01-35.71-115.19-331.76h-205.05c-1.15-3.46,47.23,46.08,47.23,46.08l-46.08,154.36c-72.57-120.95-146.3-268.4-168.18-389.36-43.77-231.54,84.09-312.18,309.87-203.89,139.39,67.96,305.25,218.87,441.18,389.36-9.18,0-20.72,0-34.53,1.15-78.33,3.46-138.25,67.96-140.55,127.87-1.15,59.9,74.88,99.05,119.8,117.48,3.47,1.15,6.91,3.47,10.37,4.62,49.53-32.25,95.6-59.9,138.22-86.4-10.34-5.76-21.87-11.52-33.41-16.13-59.9-23.04-111.71-28.8-114.03-62.2,1.15-21.89,46.06-38.01,101.37-25.34l64.49,92.16,25.36,41.45h0Z"/>
  <path class="st1" d="M342.43,819.05h169.34l137.08,234.98v-190.05l-35.71-44.93h131.32l-38.01,42.62v287.99l42.62,54.16h-175.1l-134.78-229.25v191.22l40.32,38.03h-134.78l35.71-49.57,1.15-289.12-39.17-46.08Z"/>
  <path class="st2" d="M934.52,1058.67h82.94l-43.77-134.78s-36.86,133.61-39.17,134.78h0Z"/>
  <path class="st3" d="M979.45,941.16c-3.79,1.31-7.63,2.46-11.52,3.46-8.06,29.95-24.19,85.24-31.1,105.99,24.19-5.78,49.53-11.54,72.57-16.13l-29.95-93.32Z"/>
  <path class="st2" d="M1799.63,1058.67h82.94l-43.77-132.47s-36.85,131.31-39.17,132.47h0Z"/>
  <path class="st1" d="M1201.78,72.59c5.76,2.3,10.37,9.22,8.06,14.98-2.3,6.91-9.22,10.37-14.98,9.22-6.91-2.3-10.37-9.22-9.22-16.13,2.3-5.76,9.22-9.22,16.13-8.06h0ZM909.18,1552.83c8.06,2.32,13.82,11.54,10.37,19.6-2.3,9.22-10.37,13.81-19.58,11.54-8.42-2.51-13.2-11.37-10.69-19.79.1-.32.2-.65.32-.96,2.3-8.06,11.52-12.66,19.58-10.38ZM605.07,1547.08c8.42,2.51,13.2,11.37,10.69,19.79-.1.32-.2.65-.32.96-2.3,8.06-11.52,12.66-19.58,10.34-8.06-2.29-13.82-11.5-10.37-19.57,2.03-8.47,10.54-13.7,19.02-11.67.19.05.38.09.57.15h0ZM841.22,1411.15c5.76,2.32,9.22,9.22,8.06,14.98-2.32,5.78-8.06,9.22-14.99,8.06-5.76-2.29-9.22-9.22-8.06-14.98,2.32-5.76,9.23-9.22,14.99-8.06ZM730.63,1514.83c4.61,1.15,6.91,6.91,5.76,11.5-1.15,4.62-6.91,6.94-11.52,5.78s-6.91-6.91-5.76-11.54c1.15-4.58,5.76-6.9,11.52-5.74ZM800.9,1638.07c5.76,2.32,9.22,8.06,8.06,13.84-2.3,5.74-8.06,9.22-13.82,6.91-5.02-.88-8.38-5.66-7.5-10.68.12-.69.32-1.36.59-2,1.15-5.74,6.91-9.22,12.67-8.06h0ZM920.7,1659.99c4.61,1.15,6.91,5.74,5.76,10.34-1.15,3.47-5.76,6.94-10.37,5.78-4.61-2.32-6.91-6.91-5.76-10.37,1.15-4.59,6.91-6.91,10.37-5.74ZM1648.75,1393.87c5.74,2.32,9.22,8.06,6.91,12.69-1.15,5.74-6.91,8.06-12.69,6.91-4.59-1.15-8.06-6.91-6.91-12.69,2.3-4.61,8.06-8.08,12.69-6.91ZM1651.02,1512.52c5.78,1.15,9.22,8.06,8.06,13.81-2.29,5.78-9.22,9.22-13.81,6.94-5.74-1.15-10.37-8.06-8.06-12.69,1.15-5.76,8.06-9.23,13.81-8.06ZM1729.37,1410c5.74,1.15,10.37,9.22,8.06,16.13-1.15,6.94-9.22,11.54-16.13,9.22-6.91-2.29-10.37-10.37-9.22-16.13,2.3-6.91,10.37-11.54,17.28-9.22ZM1728.21,1331.65c8.06,2.32,13.84,12.69,11.54,20.75s-12.69,13.81-20.75,11.54c-9.22-2.32-14.98-12.69-12.66-20.75,3.42-9.22,12.64-14.98,21.87-11.54ZM1879.1,1328.21c5.78,1.15,10.37,9.22,8.06,14.98-1.12,5.74-9.18,9.22-13.81,8.06-6.91-2.32-10.37-9.22-9.22-14.98,2.3-5.74,9.22-10.37,14.96-8.06h0ZM1970.14,1408.83c5.74,2.32,9.22,9.22,6.91,16.13-1.15,4.62-8.06,9.22-13.81,6.94-6.94-1.15-10.37-8.06-9.22-13.84,2.26-6.91,9.2-10.38,16.11-9.23ZM1873.36,1497.55c5.74,1.15,9.22,9.22,8.06,14.98-2.32,5.74-9.22,9.22-14.98,8.06-5.74-2.32-10.37-9.22-8.06-14.98,1.17-5.74,8.06-10.37,14.98-8.06ZM1957.45,1550.55c4.62,1.12,9.22,8.06,6.91,13.81-1.12,5.74-8.06,9.22-13.81,8.06-5.74-2.32-9.22-9.22-6.91-13.81,1.15-5.79,8.05-9.23,13.81-8.06ZM2023.1,1385.81c5.78,2.32,10.37,10.37,9.22,16.13-2.29,6.91-10.34,11.54-16.13,9.22-6.91-2.32-11.5-10.37-9.22-16.13,1.17-6.91,9.23-11.54,16.13-9.22ZM1856.08,1282.12c4.62,1.15,6.91,5.78,5.74,9.22-1.12,3.47-5.74,5.78-9.18,4.62-3.47-1.15-5.78-4.62-4.62-8.06,1.15-4.61,4.62-6.93,8.06-5.78h0ZM1693.64,1732.54c6.91,2.32,12.69,11.54,10.37,19.6s-11.54,12.66-19.6,10.37c-8.06-2.32-12.66-11.54-10.34-19.6,2.29-8.06,11.5-12.69,19.57-10.37ZM835.46,1222.22c4.61,1.15,6.91,5.78,5.76,10.37-1.15,4.62-6.91,8.06-11.52,6.91-4.61-2.29-6.91-6.91-5.76-11.5,1.15-4.62,6.91-8.05,11.52-5.78ZM560.14,1522.89c5.76,1.15,9.22,8.06,8.06,13.81-2.3,6.91-8.06,10.37-13.82,8.06-5.59-.81-9.46-6-8.65-11.59.11-.76.31-1.5.58-2.22.82-5.6,6.02-9.47,11.62-8.64.75.11,1.49.31,2.21.58ZM572.81,1461.84c5.76,2.32,9.22,8.06,8.06,14.98-2.3,5.78-8.06,9.22-14.98,6.94-5.76-1.15-9.22-8.1-6.91-13.84.8-5.59,5.98-9.47,11.57-8.67.77.11,1.53.31,2.25.59ZM463.38,1474.53c4.61,2.29,6.91,6.91,5.76,10.34-1.15,4.62-5.76,6.94-10.37,5.78s-6.91-5.78-5.76-10.37c1.15-3.47,5.76-6.91,10.37-5.74ZM1136.11,183.18c6.91,1.15,10.37,8.06,8.06,14.98-2.3,6.93-9.22,10.37-14.98,8.06-6.91-1.15-10.37-8.06-8.06-14.98,1.15-6.91,8.06-10.37,14.98-8.06ZM1255.92,201.61c3.46,1.15,5.74,5.76,4.59,9.22-1.14,3.46-4.59,5.76-9.2,4.61-2.3-1.15-4.61-4.61-3.46-9.22,1.15-3.46,4.61-5.76,8.06-4.61ZM1260.51,323.73c3.47,1.15,5.78,4.61,4.62,8.06-1.15,4.61-4.62,5.76-9.22,4.61-3.46-1.15-5.76-4.61-4.61-8.06,1.15-3.47,5.76-5.78,9.2-4.61ZM1004.79,271.88c3.46,1.15,5.76,4.61,4.61,8.06-1.15,4.61-4.61,6.91-8.06,5.76-4.61-1.15-5.76-5.76-4.61-9.22s4.61-5.76,8.06-4.61h0ZM1026.68,289.16c4.61,1.15,6.91,5.76,5.76,9.22s-5.76,5.74-9.22,4.61c-3.46-1.15-5.76-4.61-4.61-9.22,1.15-3.46,4.61-5.76,8.06-4.61ZM829.7,471.17c4.61,1.15,6.91,5.76,5.76,9.22s-5.76,5.74-9.22,4.61c-3.46-1.15-5.76-4.61-4.61-9.22,1.15-3.46,4.61-4.61,8.06-4.61ZM1058.93,301.83c4.61,1.15,6.91,5.76,5.76,10.37-1.15,5.76-5.76,8.06-11.52,6.91-4.61-1.15-6.91-5.76-5.76-11.52,2.3-4.61,6.91-6.91,11.52-5.76h0ZM1018.62,337.54c4.61,2.3,8.06,6.91,6.91,11.52-2.3,4.61-6.91,8.06-11.52,5.76-4.61-1.15-8.06-5.76-5.76-11.52,1.15-4.61,5.76-6.9,10.37-5.76ZM1167.22,270.73c5.76,2.3,9.22,8.06,6.91,12.67-1.15,6.91-6.91,9.22-13.82,8.06-4.61-2.3-8.06-6.91-5.76-13.82,1.15-5.76,6.91-8.06,12.67-6.91h0ZM863.1,517.24c5.76,2.3,9.22,8.06,8.06,12.67-2.3,6.91-8.06,9.22-13.82,8.06-5.76-2.3-9.22-6.91-6.91-13.82,1.15-5.76,6.91-8.06,12.67-6.91ZM1397.59,392.83c6.91,2.3,11.54,9.22,9.22,16.13-2.32,8.06-9.22,11.52-17.28,9.22-6.57-2.01-10.27-8.97-8.26-15.55.06-.2.12-.39.19-.58,2.32-8.06,9.23-11.52,16.13-9.22ZM1382.63,173.96l9.22-78.33,6.91,78.33c2.32,1.15,4.62,2.3,5.74,4.61l54.16,5.76-52.99,6.91c-1.15,4.61-3.44,6.91-6.91,9.22l-6.91,82.94-8.06-82.94c-3.25-2.23-5.68-5.47-6.91-9.22l-54.16-3.46,55.31-8.06c1.14-2.3,3.46-4.61,4.61-5.76h0ZM920.7,475.77l8.06-49.53,6.91,49.53c2.46,1.3,4.46,3.3,5.76,5.76l39.17,4.61-38.01,8.06c-1.15,3.46-3.46,6.91-6.93,8.06l-6.91,66.81-8.06-66.81c-3.46-2.3-5.76-4.61-6.91-8.06l-34.56-3.46,35.71-9.22c1.31-2.45,3.32-4.45,5.78-5.76ZM1980.47,1316.69l8.06-49.53,6.94,49.53c2.29,1.15,4.59,2.32,5.74,4.62l36.88,6.91-35.71,5.74c-1.23,3.75-3.66,6.99-6.91,9.22l-8.06,49.53-6.94-49.53c-3.25-2.24-5.67-5.47-6.91-9.22l-46.06-4.59,47.21-6.91c1.31-2.45,3.31-4.46,5.76-5.78h0ZM1887.17,1544.76l6.94-28.78,9.22,28.78c2.29,1.15,3.44,3.47,4.59,5.78l26.49,9.22-24.19,3.44c-1.15,3.47-4.62,6.91-6.91,9.22l-6.94,29.97-9.22-31.12c-3.44-1.15-5.74-4.59-6.91-8.06l-29.93-3.44,32.25-8.1c1.17-3.42,2.32-4.58,4.61-6.9ZM826.24,1752.13l4.61-47.25,11.52,47.25c2.3,1.15,4.61,3.44,5.76,4.59l40.32,5.78-39.17,6.91c-1.15,4.59-3.46,8.06-6.91,9.22l-8.06,48.37-8.06-48.37c-2.56-2.62-4.53-5.76-5.76-9.22l-39.17-4.62,40.32-6.91c1.15-2.3,2.3-4.58,4.61-5.74h0ZM1153.39,1635.8c6.91,2.29,11.52,9.18,9.22,16.13-2.32,6.91-9.22,11.5-16.13,9.22-6.91-2.32-11.52-9.22-9.22-16.16,2.3-6.91,9.22-11.5,16.13-9.18ZM1348.07,1567.83c4.62,1.12,8.06,6.91,6.91,11.5-2.29,5.78-8.06,9.22-12.66,6.91-5.78-1.12-8.06-6.91-6.91-11.5.84-4.99,5.56-8.36,10.56-7.53.72.12,1.43.33,2.1.62Z"/>
</svg>